<?xml version="1.0" encoding="UTF-8"?>
<!DOCTYPE svg PUBLIC "-//W3C//DTD SVG 1.1//EN" "http://www.w3.org/Graphics/SVG/1.1/DTD/svg11.dtd">
<!-- Creator: CorelDRAW 2019 (64-Bit) -->
<svg xmlns="http://www.w3.org/2000/svg" xml:space="preserve" width="215.9mm" height="279.4mm" version="1.1" style="shape-rendering:geometricPrecision; text-rendering:geometricPrecision; image-rendering:optimizeQuality; fill-rule:evenodd; clip-rule:evenodd"
viewBox="0 0 21590 27940"
 xmlns:xlink="http://www.w3.org/1999/xlink"
 xmlns:xodm="http://www.corel.com/coreldraw/odm/2003">
 <defs>
  <style type="text/css">
   <![CDATA[
    .str0 {stroke:#2261B4;stroke-width:20;stroke-miterlimit:22.9256}
    .fil1 {fill:#2261B4}
    .fil0 {fill:#2261B4}
   ]]>
  </style>
 </defs>
 <g id="Capa_x0020_1">
  <metadata id="CorelCorpID_0Corel-Layer"/>
  <polygon class="fil0 str0" points="7751.3,4024.5 1147.58,10628.23 2918.15,12398.8 9521.88,5795.08 "/>
  <path class="fil1 str0" d="M19405.98 6237.59l-1718.73 -1718.73 772.49 -772.49c46.67,-46.67 123.05,-46.67 169.71,0l1549.03 1549.02c46.66,46.66 46.66,123.05 0,169.71l-772.5 772.49z"/>
  <polygon class="fil0 str0" points="14608.47,4542.16 19505.43,9439.12 20701.74,8242.81 15804.78,3345.85 "/>
  <polygon class="fil0 str0" points="20039.94,10619.97 13436.21,4016.24 11665.63,5786.82 18269.36,12390.54 "/>
  <polygon class="fil0 str0" points="15559.8,16481.28 7561.88,8483.35 5631.81,10413.42 13629.73,18411.35 "/>
  <polygon class="fil0 str0" points="9529.93,21133.47 2926.2,14529.75 1155.62,16300.33 7759.35,22904.05 "/>
  <path class="fil0 str0" d="M3323.31 22264.43l-1718.73 -1718.73 -495.62 495.62c-198.95,198.95 -198.95,524.5 0,723.45l995.28 995.29c198.95,198.94 524.5,198.94 723.45,0l495.62 -495.63z"/>
  <polygon class="fil0 str0" points="468.11,18659.49 5365.07,23556.45 6561.38,22360.14 1664.42,17463.18 "/>
  <path class="fil1 str0" d="M3443.44 4552.05l-1718.73 1718.73 -772.5 -772.49c-46.66,-46.67 -46.66,-123.05 0,-169.71l1549.03 -1549.03c46.66,-46.66 123.04,-46.66 169.71,0l772.49 772.5z"/>
  <polygon class="fil0 str0" points="8304.77,13775.52 5629.91,16450.38 7559.98,18380.45 10234.83,15705.59 "/>
  <polygon class="fil0 str0" points="18263.09,14504.34 11659.36,21108.06 13429.94,22878.64 20033.67,16274.92 "/>
  <path class="fil0 str0" d="M19495.66 20546.82l-1718.73 1718.73 495.62 495.62c198.95,198.95 524.5,198.95 723.45,0l995.28 -995.28c198.95,-198.95 198.95,-524.5 0,-723.45l-495.62 -495.62z"/>
  <polygon class="fil0 str0" points="15844.9,23583.49 20741.86,18686.53 19545.55,17490.22 14648.59,22387.18 "/>
  <polygon class="fil0 str0" points="13600.53,8479.77 10925.67,11154.62 12855.74,13084.69 15530.59,10409.83 "/>
  <polygon class="fil0 str0" points="7751.36,3992.61 1147.64,10596.33 2918.21,12366.91 9521.94,5763.19 "/>
  <polygon class="fil0 str0" points="1640.48,9385.64 6537.44,4488.68 5341.13,3292.37 444.17,8189.33 "/>
 </g>
</svg>
